<?xml version="1.0" encoding="UTF-8"?><svg xmlns="http://www.w3.org/2000/svg" xmlns:xlink="http://www.w3.org/1999/xlink" clip-rule="evenodd" stroke-miterlimit="4.00" viewBox="0 0 1024 768"><desc>SVG generated by Keynote</desc><defs></defs><g transform="matrix(1.00, 0.00, -0.00, -1.00, 0.0, 768.0)"><path d="M 0.0 0.0 L 1024.0 0.0 L 1024.0 768.0 L 0.0 768.0 Z M 0.0 0.0 " fill="#000000"></path><text xml:space="preserve" font-family="Helvetica-Light" font-size="80.0" fill="#FEFFFF" transform="matrix(1.00, 0.00, -0.00, -1.00, 174.0, 633.0)">k</text><text xml:space="preserve" font-family="Helvetica-Light" font-size="80.0" fill="#FEFFFF" transform="matrix(1.00, 0.00, -0.00, -1.00, 214.0, 633.0)">t</text><text xml:space="preserve" font-family="Helvetica-Light" font-size="80.0" fill="#FEFFFF" transform="matrix(1.00, 0.00, -0.00, -1.00, 236.2, 633.0)">o</text><text xml:space="preserve" font-family="Helvetica-Light" font-size="80.0" fill="#FEFFFF" transform="matrix(1.00, 0.00, -0.00, -1.00, 280.7, 633.0)"> </text><text xml:space="preserve" font-family="Helvetica-Light" font-size="80.0" fill="#FEFFFF" transform="matrix(1.00, 0.00, -0.00, -1.00, 303.0, 633.0)">u</text><text xml:space="preserve" font-family="Helvetica-Light" font-size="80.0" fill="#FEFFFF" transform="matrix(1.00, 0.00, -0.00, -1.00, 347.4, 633.0)">ż</text><text xml:space="preserve" font-family="Helvetica-Light" font-size="80.0" fill="#FEFFFF" transform="matrix(1.00, 0.00, -0.00, -1.00, 387.4, 633.0)">y</text><text xml:space="preserve" font-family="Helvetica-Light" font-size="80.0" fill="#FEFFFF" transform="matrix(1.00, 0.00, -0.00, -1.00, 427.4, 633.0)">w</text><text xml:space="preserve" font-family="Helvetica-Light" font-size="80.0" fill="#FEFFFF" transform="matrix(1.00, 0.00, -0.00, -1.00, 485.2, 633.0)">a</text><text xml:space="preserve" font-family="Helvetica-Light" font-size="80.0" fill="#FEFFFF" transform="matrix(1.00, 0.00, -0.00, -1.00, 529.7, 633.0)"> </text><text xml:space="preserve" font-family="Helvetica-Light" font-size="80.0" fill="#FEFFFF" transform="matrix(1.00, 0.00, -0.00, -1.00, 551.9, 633.0)">D</text><text xml:space="preserve" font-family="Helvetica-Light" font-size="80.0" fill="#FEFFFF" transform="matrix(1.00, 0.00, -0.00, -1.00, 609.7, 633.0)">j</text><text xml:space="preserve" font-family="Helvetica-Light" font-size="80.0" fill="#FEFFFF" transform="matrix(1.00, 0.00, -0.00, -1.00, 627.4, 633.0)">a</text><text xml:space="preserve" font-family="Helvetica-Light" font-size="80.0" fill="#FEFFFF" transform="matrix(1.00, 0.00, -0.00, -1.00, 671.9, 633.0)">n</text><text xml:space="preserve" font-family="Helvetica-Light" font-size="80.0" fill="#FEFFFF" transform="matrix(1.00, 0.00, -0.00, -1.00, 716.4, 633.0)">g</text><text xml:space="preserve" font-family="Helvetica-Light" font-size="80.0" fill="#FEFFFF" transform="matrix(1.00, 0.00, -0.00, -1.00, 765.3, 633.0)">o</text><text xml:space="preserve" font-family="Helvetica-Light" font-size="80.0" fill="#FEFFFF" transform="matrix(1.00, 0.00, -0.00, -1.00, 809.8, 633.0)">?</text><text xml:space="preserve" font-family="Helvetica-Light" font-size="28.5" fill="#FEFFFF" transform="matrix(1.00, 0.00, -0.00, -1.00, 79.0, 526.1)">•</text><text xml:space="preserve" font-family="Helvetica-Light" font-size="38.0" fill="#FEFFFF" transform="matrix(1.00, 0.00, -0.00, -1.00, 114.0, 523.0)">P</text><text xml:space="preserve" font-family="Helvetica-Light" font-size="38.0" fill="#FEFFFF" transform="matrix(1.00, 0.00, -0.00, -1.00, 137.2, 523.0)">i</text><text xml:space="preserve" font-family="Helvetica-Light" font-size="38.0" fill="#FEFFFF" transform="matrix(1.00, 0.00, -0.00, -1.00, 145.7, 523.0)">n</text><text xml:space="preserve" font-family="Helvetica-Light" font-size="38.0" fill="#FEFFFF" transform="matrix(1.00, 0.00, -0.00, -1.00, 166.8, 523.0)">t</text><text xml:space="preserve" font-family="Helvetica-Light" font-size="38.0" fill="#FEFFFF" transform="matrix(1.00, 0.00, -0.00, -1.00, 177.3, 523.0)">e</text><text xml:space="preserve" font-family="Helvetica-Light" font-size="38.0" fill="#FEFFFF" transform="matrix(1.00, 0.00, -0.00, -1.00, 198.5, 523.0)">r</text><text xml:space="preserve" font-family="Helvetica-Light" font-size="38.0" fill="#FEFFFF" transform="matrix(1.00, 0.00, -0.00, -1.00, 210.4, 523.0)">e</text><text xml:space="preserve" font-family="Helvetica-Light" font-size="38.0" fill="#FEFFFF" transform="matrix(1.00, 0.00, -0.00, -1.00, 231.6, 523.0)">s</text><text xml:space="preserve" font-family="Helvetica-Light" font-size="38.0" fill="#FEFFFF" transform="matrix(1.00, 0.00, -0.00, -1.00, 250.6, 523.0)">t</text><text xml:space="preserve" font-family="Helvetica-Light" font-size="38.0" fill="#FEFFFF" transform="matrix(1.00, 0.00, -0.00, -1.00, 261.1, 523.0)"> </text><text xml:space="preserve" font-family="Helvetica-Light" font-size="28.5" fill="#FEFFFF" transform="matrix(1.00, 0.00, -0.00, -1.00, 79.0, 438.1)">•</text><text xml:space="preserve" font-family="Helvetica-Light" font-size="38.0" fill="#FEFFFF" transform="matrix(1.00, 0.00, -0.00, -1.00, 114.0, 435.0)">I</text><text xml:space="preserve" font-family="Helvetica-Light" font-size="38.0" fill="#FEFFFF" transform="matrix(1.00, 0.00, -0.00, -1.00, 124.6, 435.0)">n</text><text xml:space="preserve" font-family="Helvetica-Light" font-size="38.0" fill="#FEFFFF" transform="matrix(1.00, 0.00, -0.00, -1.00, 145.7, 435.0)">s</text><text xml:space="preserve" font-family="Helvetica-Light" font-size="38.0" fill="#FEFFFF" transform="matrix(1.00, 0.00, -0.00, -1.00, 164.7, 435.0)">t</text><text xml:space="preserve" font-family="Helvetica-Light" font-size="38.0" fill="#FEFFFF" transform="matrix(1.00, 0.00, -0.00, -1.00, 175.3, 435.0)">a</text><text xml:space="preserve" font-family="Helvetica-Light" font-size="38.0" fill="#FEFFFF" transform="matrix(1.00, 0.00, -0.00, -1.00, 196.4, 435.0)">g</text><text xml:space="preserve" font-family="Helvetica-Light" font-size="38.0" fill="#FEFFFF" transform="matrix(1.00, 0.00, -0.00, -1.00, 219.6, 435.0)">r</text><text xml:space="preserve" font-family="Helvetica-Light" font-size="38.0" fill="#FEFFFF" transform="matrix(1.00, 0.00, -0.00, -1.00, 232.3, 435.0)">a</text><text xml:space="preserve" font-family="Helvetica-Light" font-size="38.0" fill="#FEFFFF" transform="matrix(1.00, 0.00, -0.00, -1.00, 253.4, 435.0)">m</text><text xml:space="preserve" font-family="Helvetica-Light" font-size="38.0" fill="#FEFFFF" transform="matrix(1.00, 0.00, -0.00, -1.00, 285.0, 435.0)"> </text><text xml:space="preserve" font-family="Helvetica-Light" font-size="28.5" fill="#FEFFFF" transform="matrix(1.00, 0.00, -0.00, -1.00, 79.0, 350.1)">•</text><text xml:space="preserve" font-family="Helvetica-Light" font-size="38.0" fill="#FEFFFF" transform="matrix(1.00, 0.00, -0.00, -1.00, 114.0, 347.0)">M</text><text xml:space="preserve" font-family="Helvetica-Light" font-size="38.0" fill="#FEFFFF" transform="matrix(1.00, 0.00, -0.00, -1.00, 145.7, 347.0)">o</text><text xml:space="preserve" font-family="Helvetica-Light" font-size="38.0" fill="#FEFFFF" transform="matrix(1.00, 0.00, -0.00, -1.00, 166.8, 347.0)">z</text><text xml:space="preserve" font-family="Helvetica-Light" font-size="38.0" fill="#FEFFFF" transform="matrix(1.00, 0.00, -0.00, -1.00, 185.8, 347.0)">i</text><text xml:space="preserve" font-family="Helvetica-Light" font-size="38.0" fill="#FEFFFF" transform="matrix(1.00, 0.00, -0.00, -1.00, 194.2, 347.0)">l</text><text xml:space="preserve" font-family="Helvetica-Light" font-size="38.0" fill="#FEFFFF" transform="matrix(1.00, 0.00, -0.00, -1.00, 202.7, 347.0)">l</text><text xml:space="preserve" font-family="Helvetica-Light" font-size="38.0" fill="#FEFFFF" transform="matrix(1.00, 0.00, -0.00, -1.00, 211.1, 347.0)">a</text><text xml:space="preserve" font-family="Helvetica-Light" font-size="38.0" fill="#FEFFFF" transform="matrix(1.00, 0.00, -0.00, -1.00, 232.2, 347.0)"> </text><text xml:space="preserve" font-family="Helvetica-Light" font-size="28.5" fill="#FEFFFF" transform="matrix(1.00, 0.00, -0.00, -1.00, 79.0, 262.1)">•</text><text xml:space="preserve" font-family="Helvetica-Light" font-size="38.0" fill="#FEFFFF" transform="matrix(1.00, 0.00, -0.00, -1.00, 114.0, 259.0)">D</text><text xml:space="preserve" font-family="Helvetica-Light" font-size="38.0" fill="#FEFFFF" transform="matrix(1.00, 0.00, -0.00, -1.00, 141.4, 259.0)">i</text><text xml:space="preserve" font-family="Helvetica-Light" font-size="38.0" fill="#FEFFFF" transform="matrix(1.00, 0.00, -0.00, -1.00, 149.9, 259.0)">s</text><text xml:space="preserve" font-family="Helvetica-Light" font-size="38.0" fill="#FEFFFF" transform="matrix(1.00, 0.00, -0.00, -1.00, 168.9, 259.0)">q</text><text xml:space="preserve" font-family="Helvetica-Light" font-size="38.0" fill="#FEFFFF" transform="matrix(1.00, 0.00, -0.00, -1.00, 192.1, 259.0)">u</text><text xml:space="preserve" font-family="Helvetica-Light" font-size="38.0" fill="#FEFFFF" transform="matrix(1.00, 0.00, -0.00, -1.00, 213.2, 259.0)">s</text><text xml:space="preserve" font-family="Helvetica-Light" font-size="38.0" fill="#FEFFFF" transform="matrix(1.00, 0.00, -0.00, -1.00, 232.2, 259.0)"> </text><text xml:space="preserve" font-family="Helvetica-Light" font-size="28.5" fill="#FEFFFF" transform="matrix(1.00, 0.00, -0.00, -1.00, 79.0, 174.1)">•</text><text xml:space="preserve" font-family="Helvetica-Light" font-size="38.0" fill="#FEFFFF" transform="matrix(1.00, 0.00, -0.00, -1.00, 114.0, 171.0)">T</text><text xml:space="preserve" font-family="Helvetica-Light" font-size="38.0" fill="#FEFFFF" transform="matrix(1.00, 0.00, -0.00, -1.00, 135.1, 171.0)">h</text><text xml:space="preserve" font-family="Helvetica-Light" font-size="38.0" fill="#FEFFFF" transform="matrix(1.00, 0.00, -0.00, -1.00, 156.3, 171.0)">e</text><text xml:space="preserve" font-family="Helvetica-Light" font-size="38.0" fill="#FEFFFF" transform="matrix(1.00, 0.00, -0.00, -1.00, 177.4, 171.0)"> </text><text xml:space="preserve" font-family="Helvetica-Light" font-size="38.0" fill="#FEFFFF" transform="matrix(1.00, 0.00, -0.00, -1.00, 187.9, 171.0)">W</text><text xml:space="preserve" font-family="Helvetica-Light" font-size="38.0" fill="#FEFFFF" transform="matrix(1.00, 0.00, -0.00, -1.00, 220.3, 171.0)">a</text><text xml:space="preserve" font-family="Helvetica-Light" font-size="38.0" fill="#FEFFFF" transform="matrix(1.00, 0.00, -0.00, -1.00, 241.5, 171.0)">s</text><text xml:space="preserve" font-family="Helvetica-Light" font-size="38.0" fill="#FEFFFF" transform="matrix(1.00, 0.00, -0.00, -1.00, 260.5, 171.0)">h</text><text xml:space="preserve" font-family="Helvetica-Light" font-size="38.0" fill="#FEFFFF" transform="matrix(1.00, 0.00, -0.00, -1.00, 281.6, 171.0)">i</text><text xml:space="preserve" font-family="Helvetica-Light" font-size="38.0" fill="#FEFFFF" transform="matrix(1.00, 0.00, -0.00, -1.00, 290.0, 171.0)">n</text><text xml:space="preserve" font-family="Helvetica-Light" font-size="38.0" fill="#FEFFFF" transform="matrix(1.00, 0.00, -0.00, -1.00, 311.1, 171.0)">g</text><text xml:space="preserve" font-family="Helvetica-Light" font-size="38.0" fill="#FEFFFF" transform="matrix(1.00, 0.00, -0.00, -1.00, 334.4, 171.0)">t</text><text xml:space="preserve" font-family="Helvetica-Light" font-size="38.0" fill="#FEFFFF" transform="matrix(1.00, 0.00, -0.00, -1.00, 344.9, 171.0)">o</text><text xml:space="preserve" font-family="Helvetica-Light" font-size="38.0" fill="#FEFFFF" transform="matrix(1.00, 0.00, -0.00, -1.00, 366.1, 171.0)">n</text><text xml:space="preserve" font-family="Helvetica-Light" font-size="38.0" fill="#FEFFFF" transform="matrix(1.00, 0.00, -0.00, -1.00, 387.2, 171.0)"> </text><text xml:space="preserve" font-family="Helvetica-Light" font-size="38.0" fill="#FEFFFF" transform="matrix(1.00, 0.00, -0.00, -1.00, 397.7, 171.0)">T</text><text xml:space="preserve" font-family="Helvetica-Light" font-size="38.0" fill="#FEFFFF" transform="matrix(1.00, 0.00, -0.00, -1.00, 418.9, 171.0)">i</text><text xml:space="preserve" font-family="Helvetica-Light" font-size="38.0" fill="#FEFFFF" transform="matrix(1.00, 0.00, -0.00, -1.00, 427.3, 171.0)">m</text><text xml:space="preserve" font-family="Helvetica-Light" font-size="38.0" fill="#FEFFFF" transform="matrix(1.00, 0.00, -0.00, -1.00, 459.0, 171.0)">e</text><text xml:space="preserve" font-family="Helvetica-Light" font-size="38.0" fill="#FEFFFF" transform="matrix(1.00, 0.00, -0.00, -1.00, 480.1, 171.0)">s</text><text xml:space="preserve" font-family="Helvetica-Light" font-size="38.0" fill="#FEFFFF" transform="matrix(1.00, 0.00, -0.00, -1.00, 499.1, 171.0)"> </text><text xml:space="preserve" font-family="Helvetica-Light" font-size="28.5" fill="#FEFFFF" transform="matrix(1.00, 0.00, -0.00, -1.00, 79.0, 86.1)">•</text><text xml:space="preserve" font-family="Helvetica-Light" font-size="38.0" fill="#FEFFFF" transform="matrix(1.00, 0.00, -0.00, -1.00, 114.0, 83.0)">B</text><text xml:space="preserve" font-family="Helvetica-Light" font-size="38.0" fill="#FEFFFF" transform="matrix(1.00, 0.00, -0.00, -1.00, 139.3, 83.0)">i</text><text xml:space="preserve" font-family="Helvetica-Light" font-size="38.0" fill="#FEFFFF" transform="matrix(1.00, 0.00, -0.00, -1.00, 147.8, 83.0)">t</text><text xml:space="preserve" font-family="Helvetica-Light" font-size="38.0" fill="#FEFFFF" transform="matrix(1.00, 0.00, -0.00, -1.00, 158.3, 83.0)">b</text><text xml:space="preserve" font-family="Helvetica-Light" font-size="38.0" fill="#FEFFFF" transform="matrix(1.00, 0.00, -0.00, -1.00, 181.6, 83.0)">u</text><text xml:space="preserve" font-family="Helvetica-Light" font-size="38.0" fill="#FEFFFF" transform="matrix(1.00, 0.00, -0.00, -1.00, 202.7, 83.0)">c</text><text xml:space="preserve" font-family="Helvetica-Light" font-size="38.0" fill="#FEFFFF" transform="matrix(1.00, 0.00, -0.00, -1.00, 223.8, 83.0)">k</text><text xml:space="preserve" font-family="Helvetica-Light" font-size="38.0" fill="#FEFFFF" transform="matrix(1.00, 0.00, -0.00, -1.00, 242.8, 83.0)">e</text><text xml:space="preserve" font-family="Helvetica-Light" font-size="38.0" fill="#FEFFFF" transform="matrix(1.00, 0.00, -0.00, -1.00, 263.9, 83.0)">t</text></g></svg>